<?xml version="1.0" encoding="utf-8"?>
<!-- Generator: Adobe Illustrator 15.0.0, SVG Export Plug-In . SVG Version: 6.00 Build 0)  -->
<!DOCTYPE svg PUBLIC "-//W3C//DTD SVG 1.1//EN" "http://www.w3.org/Graphics/SVG/1.1/DTD/svg11.dtd">
<svg version="1.1" id="Ebene_1" xmlns="http://www.w3.org/2000/svg" xmlns:xlink="http://www.w3.org/1999/xlink" x="0px" y="0px"
	 width="81.73px" height="89.28px" viewBox="0 0 81.73 89.28" enable-background="new 0 0 81.73 89.28" xml:space="preserve">
<g>
	<g>
		<path fill="#998675" d="M59.634,59.584c3.637,5.092,11.274,13.819,5.455,17.819c-3.895,2.679-8.675-8.024-10.884-11.468"/>
		<path d="M63.79,78.557c-0.234,0-0.473-0.027-0.714-0.084c-3.016-0.701-5.919-5.879-8.04-9.66
			c-0.562-1.002-1.046-1.865-1.443-2.484c-0.217-0.337-0.118-0.787,0.22-1.004c0.34-0.217,0.789-0.119,1.006,0.219
			c0.419,0.654,0.914,1.537,1.486,2.558c1.877,3.345,4.711,8.399,7.101,8.955c0.463,0.108,0.866,0.028,1.271-0.252
			c0.997-0.685,1.566-1.532,1.743-2.591c0.578-3.484-3.211-8.58-5.978-12.301c-0.503-0.675-0.978-1.314-1.399-1.904
			c-0.233-0.327-0.158-0.781,0.168-1.015c0.327-0.233,0.782-0.158,1.016,0.169c0.417,0.584,0.887,1.215,1.383,1.883
			c3.085,4.148,6.925,9.312,6.245,13.406c-0.241,1.449-1.032,2.644-2.353,3.551C64.964,78.372,64.391,78.557,63.79,78.557z"/>
	</g>
	<g>
		<path fill="#998675" d="M29.066,62.914c-6.09,1.434-17.585,2.968-15.844,9.811c1.166,4.581,11.814-0.32,15.743-1.456"/>
		<path d="M16.519,75.366c-0.96,0-1.81-0.15-2.486-0.511c-0.782-0.418-1.292-1.074-1.515-1.952c-0.396-1.554-0.204-2.974,0.57-4.222
			c2.186-3.527,8.476-4.883,13.531-5.971c0.813-0.175,1.583-0.341,2.281-0.506c0.387-0.09,0.782,0.15,0.874,0.543
			c0.093,0.391-0.15,0.781-0.541,0.873c-0.706,0.167-1.485,0.334-2.308,0.512c-4.533,0.977-10.741,2.312-12.601,5.314
			c-0.565,0.912-0.694,1.926-0.396,3.098c0.122,0.479,0.373,0.805,0.791,1.027c2.165,1.156,7.627-0.777,11.242-2.059
			c1.104-0.391,2.057-0.729,2.803-0.943c0.384-0.111,0.789,0.111,0.901,0.497c0.111,0.386-0.111,0.788-0.498,0.899
			c-0.704,0.205-1.638,0.535-2.72,0.918C23.371,73.975,19.439,75.366,16.519,75.366z"/>
	</g>
	<g>
		<path fill="#998675" d="M60.958,8.08c-8.344,1.954,5.463,13.549-20.093,13.549c-23.628,0-11.75-11.596-20.094-13.549
			C9.92,5.539,7.034,27.366,7.034,40.771c0,22.44,15.146,40.634,33.832,40.634c18.684,0,33.831-18.193,33.831-40.634
			C74.696,27.367,71.81,5.538,60.958,8.08z"/>
	</g>
	<g>
		<path fill="#C7B299" d="M40.919,28.627c-15.393,0-27.871,14.115-27.871,31.525c0,1.412,0.083,2.803,0.243,4.166
			c6.132,10.341,16.197,17.086,27.574,17.086c11.46,0,21.587-6.846,27.707-17.316c0.142-1.29,0.216-2.604,0.216-3.936
			C68.788,42.742,56.311,28.627,40.919,28.627z"/>
	</g>
	<g>
		<circle cx="28.005" cy="26.935" r="1.701"/>
	</g>
	<g>
		<circle cx="52.733" cy="26.935" r="1.701"/>
	</g>
	<g>
		<path d="M42.427,27.83c1.129,5.645-3.7,5.92-4.994,4.995c-1.295-0.925-3.145-5.365-0.463-5.457
			C39.652,27.275,42.058,25.98,42.427,27.83z"/>
	</g>
	<g>
		<path d="M39.5,39.221c-0.401,0-0.5-0.326-0.5-0.728v-7.637c0-0.401,0.099-0.728,0.5-0.728c0.402,0,0.5,0.326,0.5,0.728v7.637
			C40,38.895,39.902,39.221,39.5,39.221z"/>
	</g>
	<g>
		<circle fill="#998675" cx="43.559" cy="31.745" r="1.1"/>
	</g>
	<g>
		<circle fill="#998675" cx="46.831" cy="32.108" r="1.101"/>
	</g>
	<g>
		<circle fill="#998675" cx="45.014" cy="34.29" r="1.101"/>
	</g>
	<g>
		<circle fill="#998675" cx="34.994" cy="33.074" r="1.101"/>
	</g>
	<g>
		<circle fill="#998675" cx="32.142" cy="34.719" r="1.1"/>
	</g>
	<g>
		<circle fill="#998675" cx="32.314" cy="31.884" r="1.1"/>
	</g>
	<g>
		<g>
			<path fill="#C7B299" d="M50.244,20.85c-2.312,0.492-5.356,0.779-9.379,0.779c-23.628,0-11.75-11.596-20.094-13.549
				c-2.068-0.484-3.845-0.082-5.37,0.977c5.553,8.033,14.824,13.3,25.328,13.3C44.052,22.356,47.247,21.824,50.244,20.85z"/>
		</g>
		<g>
			<path fill="#C7B299" d="M66.145,8.934c-1.483-0.965-3.201-1.319-5.187-0.854c-5.55,1.299-1.304,6.862-5.354,10.443
				C59.822,16.19,63.435,12.896,66.145,8.934z"/>
		</g>
	</g>
	<g>
		<path d="M40.865,82.131c-19.056,0-34.559-18.555-34.559-41.36c0-3.441,0.358-33.622,12.773-33.622
			c0.602,0,1.226,0.075,1.858,0.223c3.546,0.831,3.942,3.261,4.326,5.611c0.605,3.712,1.292,7.92,15.602,7.92
			c15.62,0,15.873-4.229,16.096-7.961c0.132-2.222,0.283-4.739,3.832-5.57c0.631-0.147,1.256-0.223,1.858-0.223
			c12.413,0,12.772,30.181,12.772,33.622C75.424,63.576,59.921,82.131,40.865,82.131z M19.08,8.604
			c-8.935,0-11.318,20.22-11.318,32.167c0,22.004,14.85,39.905,33.104,39.905c18.254,0,33.104-17.901,33.104-39.905
			c0-11.947-2.385-32.167-11.317-32.167c-0.491,0-1.005,0.062-1.527,0.185c-2.493,0.583-2.579,2.038-2.711,4.24
			c-0.118,1.982-0.267,4.451-2.663,6.323c-2.588,2.022-7.456,3.005-14.885,3.005c-15.547,0-16.374-5.067-17.038-9.14
			c-0.361-2.218-0.623-3.82-3.221-4.429C20.083,8.665,19.569,8.604,19.08,8.604z"/>
	</g>
	<g>
		<path d="M39.115,40.103c-2.395,0-4.869-0.596-7.296-1.795c-0.322-0.158-0.454-0.548-0.294-0.87
			c0.159-0.321,0.548-0.454,0.871-0.295c5.06,2.499,10.116,2.207,14.238-0.822c0.291-0.212,0.697-0.148,0.908,0.14
			c0.213,0.289,0.15,0.695-0.139,0.908C44.931,39.186,42.085,40.103,39.115,40.103z"/>
	</g>
	<path d="M57,66c0,1.657-1.343,3-3,3H25c-1.657,0-3-1.343-3-3V46c0-1.657,1.343-3,3-3h29c1.657,0,3,1.343,3,3V66z"/>
	<g>
		<path fill="#998675" d="M9.393,47.799c4.856,3.945,13.094,12.107,17.447,6.548c2.914-3.722-7.473-9.155-10.771-11.572"/>
		<path d="M23.125,56.954c-3.999,0-8.636-3.917-12.397-7.094c-0.636-0.536-1.237-1.044-1.794-1.497
			c-0.311-0.253-0.359-0.711-0.105-1.022s0.712-0.358,1.023-0.106c0.563,0.459,1.172,0.973,1.814,1.516
			c3.542,2.991,8.397,7.09,11.906,6.727c1.068-0.109,1.95-0.625,2.695-1.578c0.304-0.388,0.408-0.786,0.33-1.254
			c-0.408-2.42-5.277-5.562-8.499-7.642c-0.983-0.635-1.833-1.183-2.46-1.642c-0.324-0.237-0.394-0.692-0.157-1.017
			c0.238-0.324,0.693-0.395,1.017-0.157c0.592,0.435,1.424,0.972,2.39,1.594c3.642,2.351,8.63,5.569,9.144,8.623
			c0.147,0.873-0.061,1.678-0.619,2.391c-0.988,1.263-2.23,1.979-3.692,2.129C23.525,56.945,23.325,56.954,23.125,56.954z"/>
	</g>
	<g>
		<path fill="#998675" d="M61.686,37.766c-3.637,5.092-11.273,13.818-5.455,17.818c3.896,2.679,8.677-8.024,10.884-11.466"/>
		<path d="M57.53,56.738c-0.602,0-1.175-0.186-1.712-0.555c-1.32-0.908-2.112-2.104-2.353-3.552
			c-0.68-4.094,3.16-9.257,6.245-13.406c0.496-0.667,0.966-1.299,1.383-1.882c0.233-0.327,0.688-0.403,1.015-0.17
			c0.327,0.233,0.402,0.688,0.169,1.015c-0.423,0.591-0.896,1.23-1.399,1.905c-2.767,3.721-6.556,8.816-5.978,12.3
			c0.177,1.059,0.746,1.906,1.743,2.592c0.405,0.279,0.81,0.359,1.271,0.252c2.39-0.557,5.226-5.61,7.101-8.956
			c0.573-1.021,1.067-1.903,1.486-2.556c0.217-0.339,0.666-0.438,1.006-0.221c0.338,0.218,0.437,0.667,0.22,1.006
			c-0.397,0.617-0.882,1.481-1.443,2.482c-2.12,3.781-5.024,8.959-8.04,9.661C58.002,56.71,57.764,56.738,57.53,56.738z"/>
	</g>
	<g>
		<path fill="#FFFFFF" stroke="#FFFFFF" stroke-linecap="round" stroke-linejoin="round" stroke-miterlimit="10" d="M45.12,53.969
			l0.94,0.412c-0.039,0.098-0.116,0.176-0.196,0.215c-0.784,2.704-2.135,4.801-3.86,6.428c1.822,1.234,4.077,2.116,6.761,2.586
			c-0.313,0.295-0.705,0.863-0.881,1.234c-2.764-0.567-5.077-1.547-6.957-2.938c-1.783,1.372-3.88,2.332-6.134,2.959
			c-0.157-0.353-0.49-0.882-0.765-1.157c2.098-0.527,4.116-1.41,5.819-2.684c-1.43-1.293-2.586-2.881-3.468-4.762
			c-0.98,2.959-2.547,5.741-4.879,7.878c-0.215-0.314-0.725-0.765-1.078-0.96c3.43-2.999,5.114-7.486,5.781-11.876h-5.292V49.99
			h5.467c0.118-1.137,0.177-2.273,0.196-3.351l1.802,0.079c-0.038,0.176-0.155,0.312-0.45,0.333c-0.02,0.94-0.078,1.92-0.195,2.938
			h10.659v1.313H37.556c-0.137,0.901-0.294,1.822-0.529,2.724h7.839L45.12,53.969z M37.32,55.301c0.824,1.92,1.999,3.566,3.566,4.88
			c1.411-1.293,2.549-2.9,3.254-4.88H37.32z"/>
	</g>
</g>
</svg>
